# xmcd
#
# Track frame offsets:
#	150
#	29903
#	48542
#	69219
#	89399
#	114415
#	132429
#	154260
#	176127
#	192197
#	209478
#	232220
#	253682
#	271127
#
# Disc length: 4037 seconds
#
# Revision: 0
# Processed by: cddbd v1.5.2PL0 Copyright (c) Steve Scherf et al.
# Submitted via: audiograbber 1.83.01
#
DISCID=d30fc30e
DTITLE=Steve LaFleur - LaFleur et Basile
DYEAR=1999
DGENRE=Cajun
TTITLE0=Pine Grove Blues
TTITLE1=JHomme A Pitier
TTITLE2=femme De Ma Vie
TTITLE3=Leona Had A Party
TTITLE4=Ponique et Lodi
TTITLE5=Maria's Waltz
TTITLE6=Cher Canaille
TTITLE7=Quo´ Faire?
TTITLE8=Bayou Pompon
TTITLE9=Valse Criminelle
TTITLE10=Danse De Mardi Gras
TTITLE11=Sur le Courtableau
TTITLE12=Chez Seychelles
TTITLE13=Ugly Day Stomp
EXTD=
EXTT0=
EXTT1=
EXTT2=
EXTT3=
EXTT4=
EXTT5=
EXTT6=
EXTT7=
EXTT8=
EXTT9=
EXTT10=
EXTT11=
EXTT12=
EXTT13=
PLAYORDER=
